<svg width="90" height="90" viewBox="0 0 90 90" fill="none" xmlns="http://www.w3.org/2000/svg">
<circle cx="45" cy="45" r="45" fill="white"/>
<path d="M44.084 74.9999C35.57 74.9999 28.3976 71.897 23.9053 66.1265C19.7924 60.8435 18.7863 54.1403 21.5664 50.5325C23.0168 48.6498 25.3645 47.7972 28.0446 48.1922C32.228 48.8148 38.8385 54.4253 40.6743 58.9108C41.8422 61.7611 40.9038 63.4912 39.9094 64.4388C38.2354 66.0365 35.8583 66.5815 33.3724 65.924C29.5126 64.9039 26.0411 61.0985 25.4733 57.2606C25.3203 56.233 26.1764 55.2954 27.3856 55.1654C28.6006 55.0454 29.6979 55.763 29.8509 56.7906C30.2392 59.4133 32.7075 61.8211 34.6816 62.3411C35.726 62.6161 36.2437 62.2936 36.6115 61.9411C36.8968 61.671 36.8557 60.9985 36.5056 60.1409C35.0169 56.5055 29.5126 52.2176 27.2797 51.8851C26.3441 51.7501 25.741 51.9551 25.2556 52.5852C23.6699 54.6429 24.2259 59.7434 27.5827 64.0538C30.2039 67.4191 36.4791 72.7796 49.0765 70.8544C65.2895 68.3792 66.1426 56.7031 65.3748 48.1347L65.3365 47.7072C65.1306 45.3369 63.0448 43.4268 59.1379 42.0241C52.4361 39.6214 43.8251 39.9789 41.9423 40.874C41.5951 42.7992 42.007 44.2318 43.2044 45.2469C46.7288 48.2372 56.1018 47.4997 59.4144 46.9646C60.6059 46.7796 61.7562 47.4297 61.9916 48.4422C62.2269 49.4523 61.4591 50.4349 60.2735 50.6425C54.1631 51.7151 50.2974 53.7203 48.7881 56.608C46.5758 60.8385 49.9973 65.8815 50.0326 65.934C50.6474 66.8241 50.3003 67.9742 49.253 68.4992C48.2027 69.0218 46.8582 68.7342 46.2375 67.8442C46.0463 67.5716 41.6216 61.1235 44.743 55.1104C45.5638 53.5277 46.8141 52.1451 48.4792 50.97C45.3343 50.5925 42.2276 49.7124 40.0918 47.8997C38.4796 46.5321 36.7527 44.0218 37.6823 39.8289C38.4561 36.3386 46.3022 36.3361 49.6384 36.4961C58.5112 36.9211 69.1022 40.0389 69.7435 47.4322L69.7818 47.8497C71.1704 63.3337 64.4687 72.3171 49.8649 74.5473C47.8791 74.8498 45.9492 74.9999 44.084 74.9999V74.9999Z" fill="black"/>
<path d="M42.4394 60.3897C38.1824 60.3897 33.4429 55.9668 31.3865 54.0491C27.7591 50.6662 25.8792 47.0584 26.2264 44.1506C26.4235 42.4904 27.3208 41.1203 28.8182 40.1927C32.4986 37.915 38.2295 39.6952 42.4423 44.4231C44.7194 46.9784 51.6476 54.7541 45.7079 59.2971C44.6958 60.0697 43.5867 60.3897 42.4394 60.3897V60.3897ZM32.4868 42.963C32.0602 42.963 31.6954 43.048 31.4189 43.2205C31.1188 43.4055 30.7099 43.7431 30.6157 44.5256C30.448 45.9333 31.4189 48.511 34.6491 51.5238C41.0596 57.5044 42.7424 56.5193 42.7571 56.5068C45.1754 54.6566 42.0098 50.1462 38.9238 46.6858C36.7438 44.2356 34.1372 42.963 32.4868 42.963V42.963Z" fill="black"/>
<path d="M39.9212 46.0011C39.3652 46.0011 38.8092 45.821 38.3826 45.4585L38.3532 45.4335C38.2649 45.3585 38.1826 45.276 38.109 45.1885C32.69 38.6628 26.5148 25.1115 29.1714 18.7359C30.1452 16.4057 32.0133 15.5181 33.4078 15.1805C34.4875 14.9205 36.1909 14.8255 38.159 15.8381C44.4665 19.0809 48.9118 31.1296 50.5416 37.7378C50.7917 38.7504 50.0297 39.7455 48.8353 39.958C47.6526 40.178 46.4788 39.5229 46.2258 38.5078C43.9841 29.4269 39.4358 20.8786 35.8761 19.0484C35.1288 18.6659 34.7523 18.7559 34.6081 18.7909C34.208 18.8859 33.699 19.1109 33.3342 19.9885C31.4367 24.5415 36.4262 36.6351 41.6952 43.0008C42.3307 43.7358 42.2718 44.7834 41.4893 45.4485C41.0539 45.816 40.4861 46.0011 39.9212 46.0011V46.0011Z" fill="black"/>
<path d="M59.6769 42.06C59.2856 42.06 58.8855 41.9725 58.5266 41.785C57.4852 41.245 57.1586 40.0899 57.7941 39.2073C63.3014 31.5465 66.6581 22.7757 65.2784 19.6603C65.0106 19.0553 64.6488 18.8853 64.2957 18.7928C62.8218 18.3902 59.1327 20.4604 51.1188 38.7122C50.6952 39.6823 49.4213 40.1749 48.2828 39.8123C47.1413 39.4498 46.5618 38.3697 46.9884 37.3996C52.3897 25.1009 58.2795 13.2697 65.6196 15.2099C67.4083 15.685 68.7204 16.7676 69.4177 18.3352C71.9948 24.1608 65.4107 35.8119 61.5686 41.16C61.1449 41.7425 60.4212 42.06 59.6769 42.06V42.06Z" fill="black"/>
</svg>
