<svg width="502" height="342" viewBox="0 0 502 342" fill="none" xmlns="http://www.w3.org/2000/svg">
<path d="M155.446 36.1132C101.81 77.981 69.816 254.225 170.386 255.477C223.324 256.135 317.483 290.927 379.561 323.223C439.923 354.625 426.508 183.143 364.62 103.86C302.732 24.5764 209.082 -5.75464 155.446 36.1132Z" fill="#FFE3CB"/>
<path d="M406.173 340.652C401.619 340.652 396.618 339.263 391.257 336.473L391.718 335.586C404.156 342.058 414.153 340.904 421.425 332.162C434.708 316.194 437.515 276.105 428.748 227.542C419.543 176.549 399.34 127.263 374.703 95.7024C307.092 9.08614 204.474 -24.2146 145.947 21.4729L145.332 20.6838C204.292 -25.3416 307.541 8.03634 375.492 95.0871C400.223 126.77 420.5 176.219 429.732 227.364C438.55 276.21 435.661 316.612 422.194 332.801C417.848 338.026 412.433 340.652 406.173 340.652Z" fill="#FFE3CB"/>
<path d="M353.531 21.7381L330.158 53.5728L331.286 54.4009L354.659 22.5662L353.531 21.7381Z" fill="#4F66D0"/>
<path d="M301.863 31.669L300.688 32.427L313.891 52.9075L315.067 52.1495L301.863 31.669Z" fill="#4F66D0"/>
<path d="M300.704 33.3419C302.083 33.3419 303.201 32.1862 303.201 30.7605C303.201 29.3347 302.083 28.179 300.704 28.179C299.326 28.179 298.208 29.3347 298.208 30.7605C298.208 32.1862 299.326 33.3419 300.704 33.3419Z" fill="#FFBA55"/>
<path d="M251.241 167.224L388.61 167.224C393.244 167.224 397.001 163.467 397.001 158.832V72.1856C397.001 67.5509 393.244 63.7938 388.61 63.7938L251.241 63.7938C246.607 63.7938 242.849 67.5509 242.849 72.1856V158.832C242.849 163.467 246.607 167.224 251.241 167.224Z" fill="#4F66D0"/>
<path d="M298.891 160.738H384.861C387.92 160.738 390.399 158.259 390.399 155.2V76.5004C390.399 73.4417 387.92 70.9621 384.861 70.9621L298.891 70.9621C295.833 70.9621 293.353 73.4417 293.353 76.5004V155.2C293.353 158.259 295.833 160.738 298.891 160.738Z" fill="#A2AEE6"/>
<path d="M281.817 70.9619H253.395C250.306 70.9619 247.801 73.4667 247.801 76.5565V155.144C247.801 158.233 250.306 160.738 253.395 160.738H281.817C284.907 160.738 287.412 158.233 287.412 155.144V76.5565C287.412 73.4667 284.907 70.9619 281.817 70.9619Z" fill="#FFBA55"/>
<path d="M363.002 174.051H380.497V167.224H363.002V174.051Z" fill="#4F66D0"/>
<path d="M259.849 174.051H277.344V167.224H259.849V174.051Z" fill="#4F66D0"/>
<path d="M336.265 63.7935L303.586 63.7935V63.606C303.586 60.6682 304.753 57.8506 306.83 55.7732C308.908 53.6958 311.725 52.5288 314.663 52.5288H325.187C326.642 52.5288 328.083 52.8153 329.426 53.372C330.77 53.9287 331.992 54.7446 333.02 55.7732C334.049 56.8018 334.865 58.023 335.421 59.3669C335.978 60.7109 336.265 62.1513 336.265 63.606V63.7935Z" fill="#A2AEE6"/>
<path d="M267.607 106.377C273.144 106.377 277.633 101.735 277.633 96.0088C277.633 90.2823 273.144 85.6401 267.607 85.6401C262.069 85.6401 257.58 90.2823 257.58 96.0088C257.58 101.735 262.069 106.377 267.607 106.377Z" fill="#4F66D0"/>
<path d="M267.607 134.824C273.144 134.824 277.633 130.182 277.633 124.455C277.633 118.729 273.144 114.086 267.607 114.086C262.069 114.086 257.58 118.729 257.58 124.455C257.58 130.182 262.069 134.824 267.607 134.824Z" fill="#4F66D0"/>
<path d="M278.609 148.492C280.2 148.492 281.49 147.158 281.49 145.512C281.49 143.867 280.2 142.533 278.609 142.533C277.018 142.533 275.728 143.867 275.728 145.512C275.728 147.158 277.018 148.492 278.609 148.492Z" fill="#D5DAF3"/>
<path d="M267.606 148.492C269.197 148.492 270.487 147.158 270.487 145.512C270.487 143.867 269.197 142.533 267.606 142.533C266.015 142.533 264.725 143.867 264.725 145.512C264.725 147.158 266.015 148.492 267.606 148.492Z" fill="#D5DAF3"/>
<path d="M256.603 148.492C258.194 148.492 259.484 147.158 259.484 145.512C259.484 143.867 258.194 142.533 256.603 142.533C255.012 142.533 253.722 143.867 253.722 145.512C253.722 147.158 255.012 148.492 256.603 148.492Z" fill="#D5DAF3"/>
<path d="M382.291 78.6714H300.705V85.6404H382.291V78.6714Z" fill="#FFBA55"/>
<path d="M322.548 90.064H300.705V102.29H322.548V90.064Z" fill="#F73C4F"/>
<path d="M322.548 108.08H300.705V120.306H322.548V108.08Z" fill="#F73C4F"/>
<path d="M322.548 126.095H300.705V138.322H322.548V126.095Z" fill="#F73C4F"/>
<path d="M367.409 204.555L367.595 209.93C367.595 209.93 382.383 214.081 382.676 212.32C382.676 212.32 383.813 212.301 376.13 207.976C374.64 207.07 373.516 205.669 372.955 204.018L367.409 204.555Z" fill="#F9977A"/>
<path d="M367.461 206.065V213.949H372.241L372.245 211.739C372.245 211.739 383.508 216.274 382.71 212.049C382.71 212.049 381.921 212.79 378.821 212.275L380.134 209.816L377.173 208.521L375.256 211.342L369.996 210.208C369.387 210.077 368.834 209.759 368.414 209.299C367.994 208.839 367.728 208.259 367.653 207.641L367.461 206.065Z" fill="#376F92"/>
<path d="M368.19 206.279C367.774 206.279 367.497 206.265 367.451 206.262C367.399 206.259 367.35 206.235 367.315 206.197C367.28 206.158 367.262 206.106 367.265 206.054C367.271 206.003 367.295 205.956 367.333 205.922C367.372 205.888 367.421 205.869 367.472 205.868C367.521 205.871 372.323 206.117 373.326 204.443C373.353 204.398 373.396 204.366 373.446 204.354C373.497 204.341 373.55 204.349 373.595 204.376C373.64 204.402 373.672 204.446 373.685 204.496C373.698 204.546 373.69 204.6 373.664 204.645C372.79 206.104 369.644 206.279 368.19 206.279Z" fill="#376F92"/>
<path d="M366.816 91.5084C369.514 91.5187 371.536 95.9261 372.183 97.3381C373.334 100.044 373.824 102.986 373.613 105.919C373.57 107.956 373.337 108.349 372.464 113.479C370.926 122.526 371.224 123.822 371.794 124.903C372.897 126.995 374.003 126.345 376.894 129.653C378.849 131.89 380.668 133.97 380.709 136.905C380.742 139.223 379.671 142.415 377.419 143.425C373.189 145.323 366.653 138.689 363.961 135.292C357.153 126.703 357.317 116.611 357.366 113.626C357.444 108.928 358.47 104.294 360.383 100.002C361.838 96.5164 363.933 91.4975 366.816 91.5084Z" fill="#160B07"/>
<path d="M366.52 105.842C364.69 107.954 356.544 106.671 359.449 104.974C358.615 104.883 357.94 104.845 357.305 104.711C353.091 103.821 348.476 98.2411 349.593 93.6727C350.567 89.6911 355.543 87.9203 356.754 87.4894C358.271 86.8788 359.92 86.667 361.542 86.8743C363.164 87.0817 364.707 87.7011 366.022 88.6737C367.616 89.8536 368.859 91.4456 369.616 93.2787C370.421 95.078 370.695 101.028 366.52 105.842Z" fill="#160B07"/>
<path d="M368.348 132.524C368.348 132.524 370.721 152.975 373.085 204.383L367.409 204.555L361.553 183.244L357.614 149.365L351.902 180.289L348.947 204.91L343.432 204.122L341.856 173.395C341.856 173.395 344.417 138.532 348.947 130.456L368.348 132.524Z" fill="#FFBA55"/>
<path d="M354.651 104.596C354.651 104.596 355.554 109.058 352.899 109.701C350.245 110.343 341.961 120.283 341.961 120.283L337.602 125.667L328.982 113.791L325.917 116.281L333.64 132.049C333.829 132.434 334.097 132.775 334.427 133.048C334.758 133.322 335.142 133.522 335.556 133.636C335.969 133.749 336.402 133.774 336.826 133.707C337.249 133.641 337.654 133.485 338.013 133.251C340.916 131.351 345.177 128.28 346.797 125.667L348.521 124.518V130.456L367.389 132.467L371.136 119.171C371.167 116.987 370.652 114.83 369.637 112.897C368.622 110.963 367.139 109.314 365.324 108.099C365.324 108.099 363.136 107.259 361.757 103.742C361.757 103.742 355.612 104.83 354.651 104.596Z" fill="#F9977A"/>
<path d="M377.48 125.878L371.136 119.171L365.324 108.099C365.324 108.099 370.239 107.121 375.894 113.879C379.495 118.238 382.782 122.847 385.732 127.671C385.732 127.671 387.571 130.062 384.996 130.981C382.422 131.9 370.469 132.268 370.469 132.268L369.205 128.567L377.48 125.878Z" fill="#F9977A"/>
<path d="M365.665 107.566L358.577 118.676L352.639 109.29C352.639 109.29 343.062 114.653 341.721 120.017L346.988 125.859L348.521 124.518L346.988 132.372C346.988 132.372 335.304 171.832 334.729 184.283C334.729 184.283 341.433 187.922 374.572 187.539C374.572 187.539 376.679 162.446 367.485 132.563L370.55 122.602L374.764 122.986L380.51 118.197C380.51 118.197 373.806 108.619 365.665 107.566Z" fill="#376F92"/>
<path d="M337.602 125.667C337.55 126.096 337.439 126.505 337.348 126.918L337.194 127.532C337.139 127.736 337.098 127.944 337.07 128.154C337.025 127.941 337.018 127.722 337.049 127.507C337.072 127.292 337.119 127.082 337.162 126.873C337.264 126.456 337.411 126.052 337.602 125.667V125.667Z" fill="#DD765E"/>
<path d="M381.273 125.667C380.639 125.621 380.003 125.613 379.368 125.645C379.052 125.655 378.737 125.682 378.423 125.725C378.108 125.758 377.798 125.824 377.48 125.878C378.075 125.622 378.712 125.479 379.359 125.454C380.004 125.418 380.651 125.49 381.273 125.667V125.667Z" fill="#DD765E"/>
<path d="M370.469 132.268C370.469 132.268 371.274 138.911 368.998 140.153C366.722 141.394 367.412 136.912 366.791 134.153C366.791 134.153 365.857 136.687 365.324 136.317C364.791 135.946 365.964 130.429 366.895 129.671C366.895 129.671 367.343 128.947 369.205 128.568L370.469 132.268Z" fill="#F9977A"/>
<path d="M369.964 136.325C369.932 136.939 369.863 137.55 369.757 138.155C369.698 138.456 369.646 138.758 369.575 139.057C369.515 139.36 369.423 139.656 369.303 139.94C369.363 139.64 369.384 139.333 369.43 139.031L369.569 138.123C369.683 137.521 369.788 136.918 369.964 136.325Z" fill="#DD765E"/>
<path d="M369.032 135.946C369.051 136.695 369.017 137.445 368.932 138.19C368.882 138.561 368.835 138.934 368.756 139.302C368.7 139.676 368.572 140.035 368.381 140.362C368.455 140.191 368.504 140.011 368.528 139.827C368.562 139.645 368.59 139.462 368.611 139.277C368.659 138.908 368.707 138.539 368.742 138.168C368.837 137.429 368.905 136.686 369.032 135.946Z" fill="#DD765E"/>
<path d="M368.067 135.567C368.148 136.274 368.161 136.987 368.108 137.697C368.078 138.053 368.027 138.406 367.957 138.757C367.896 139.112 367.754 139.449 367.544 139.742C367.686 139.421 367.777 139.079 367.812 138.73C367.857 138.382 367.896 138.033 367.917 137.682C367.98 136.98 368.002 136.276 368.067 135.567Z" fill="#DD765E"/>
<path d="M366.791 134.153C366.74 133.921 366.717 133.682 366.723 133.444C366.731 133.208 366.753 132.973 366.791 132.74C366.884 132.964 366.926 133.205 366.914 133.448C366.911 133.688 366.87 133.926 366.791 134.153V134.153Z" fill="#DD765E"/>
<path d="M328.982 113.791C328.363 112.713 327.677 111.675 326.928 110.683C326.764 110.491 326.604 110.296 326.45 110.096C326.043 109.569 325.289 108.663 324.899 108.638C324.347 108.604 325.918 111.215 325.918 111.215L321.138 108.844C321.022 108.784 320.896 108.749 320.766 108.739C320.543 108.725 320.31 108.788 320.795 109.259C321.182 109.634 323.071 110.879 323.071 110.879L320.278 109.81C320.278 109.81 318.761 109.431 319.83 110.293C320.642 110.89 321.536 111.367 322.485 111.707L320.002 111.214C320.002 111.214 318.623 110.81 319.83 111.672C320.501 112.17 321.262 112.533 322.071 112.741C322.071 112.741 322.519 113.189 320.071 112.293C320.071 112.293 318.365 111.862 320.554 113.086C322.405 114.042 324.196 115.109 325.918 116.281L328.982 113.791Z" fill="#F9977A"/>
<path d="M325.623 111.5C325.55 111.653 325.49 111.811 325.445 111.974C325.398 112.132 325.365 112.294 325.344 112.458C325.302 112.792 325.28 113.128 325.278 113.465C325.212 113.303 325.168 113.132 325.149 112.958C325.132 112.782 325.133 112.605 325.154 112.43C325.197 112.075 325.363 111.746 325.623 111.5V111.5Z" fill="#DD765E"/>
<path d="M324.899 111.5C324.637 111.794 324.324 112.04 323.976 112.224C323.8 112.316 323.614 112.389 323.423 112.44C323.23 112.496 323.026 112.502 322.83 112.46C323.018 112.43 323.202 112.376 323.377 112.3C323.552 112.23 323.723 112.148 323.887 112.055C324.228 111.887 324.547 111.677 324.899 111.5Z" fill="#DD765E"/>
<path d="M348.915 204.555L348.73 209.93C348.73 209.93 333.941 214.081 333.648 212.32C333.648 212.32 332.512 212.301 340.194 207.976C341.684 207.07 342.808 205.669 343.37 204.018L348.915 204.555Z" fill="#F9977A"/>
<path d="M348.863 206.065L348.808 213.949H344.169L343.942 213.028C343.942 213.028 331.881 215.074 333.614 212.049C333.614 212.049 334.403 212.79 337.503 212.275L336.19 209.816L339.151 208.521L341.068 211.342L346.253 210.225C346.884 210.089 347.457 209.759 347.892 209.282C348.327 208.806 348.603 208.205 348.681 207.564L348.863 206.065Z" fill="#376F92"/>
<path d="M348.134 206.279C346.681 206.279 343.535 206.104 342.661 204.645C342.634 204.6 342.626 204.546 342.639 204.495C342.652 204.445 342.684 204.401 342.729 204.375C342.774 204.348 342.827 204.34 342.878 204.353C342.929 204.365 342.972 204.398 342.999 204.443C344.002 206.117 348.803 205.871 348.852 205.868C348.904 205.867 348.955 205.885 348.993 205.92C349.032 205.954 349.056 206.002 349.06 206.054C349.062 206.106 349.044 206.158 349.01 206.197C348.975 206.236 348.926 206.259 348.874 206.262C348.828 206.265 348.55 206.279 348.134 206.279Z" fill="#376F92"/>
<path d="M362.214 104.758C360.01 107.106 357.184 108.122 354.932 107.085C354.873 107.059 354.818 107.028 354.761 106.999C354.831 106.197 354.794 105.389 354.651 104.596C355.612 104.83 361.757 103.742 361.757 103.742C361.902 104.11 362.055 104.447 362.214 104.758Z" fill="#DD765E"/>
<path d="M352.588 95.9993C353.368 90.9841 356.778 87.3502 360.205 87.8829C362.851 88.294 364.731 91.0679 365.094 94.6179C365.209 94.5341 365.342 94.4767 365.481 94.4497C365.621 94.4228 365.765 94.4269 365.903 94.4618C366.653 94.7014 366.874 96.1072 366.397 97.6015C365.994 98.8632 365.222 99.7813 364.54 99.8934C363.289 103.855 360.343 106.505 357.383 106.045C353.955 105.512 351.809 101.015 352.588 95.9993Z" fill="#F9977A"/>
<path d="M356.658 95.4073C356.884 95.9798 356.917 96.6104 356.752 97.2033C356.612 97.7969 356.39 98.368 356.092 98.9C355.939 99.1679 355.693 99.3857 355.744 99.6224C355.811 99.8863 355.98 100.113 356.214 100.252C356.472 100.387 356.755 100.469 357.045 100.494C357.336 100.519 357.629 100.487 357.906 100.399C357.628 100.535 357.322 100.606 357.013 100.608C356.703 100.61 356.396 100.542 356.116 100.409C355.969 100.333 355.841 100.226 355.739 100.096C355.637 99.9654 355.565 99.8145 355.527 99.6534C355.502 99.4773 355.545 99.2983 355.647 99.1527L355.888 98.7747C356.183 98.2641 356.414 97.719 356.576 97.1519C356.763 96.5891 356.792 95.9854 356.658 95.4073V95.4073Z" fill="#DD765E"/>
<path d="M362.02 96.3932C362.059 96.3819 362.095 96.3606 362.124 96.3314C362.153 96.3022 362.174 96.2661 362.185 96.2265C362.196 96.1869 362.196 96.1452 362.187 96.1053C362.177 96.0654 362.157 96.0287 362.129 95.9987C361.686 95.5289 361.137 95.1725 360.527 94.9595C359.918 94.7465 359.266 94.6832 358.627 94.7747C358.596 94.7816 358.567 94.7945 358.541 94.8127C358.516 94.8308 358.494 94.8539 358.477 94.8805C358.46 94.9071 358.448 94.9368 358.443 94.9678C358.438 94.9989 358.438 95.0307 358.445 95.0614C358.452 95.0922 358.465 95.1213 358.483 95.1471C358.501 95.1729 358.524 95.1948 358.551 95.2117C358.578 95.2286 358.607 95.24 358.638 95.2454C358.669 95.2508 358.701 95.25 358.732 95.2431C359.289 95.1733 359.855 95.2348 360.384 95.4229C360.913 95.611 361.39 95.9204 361.778 96.3263C361.808 96.3586 361.847 96.382 361.889 96.3938C361.932 96.4056 361.977 96.4054 362.02 96.3932V96.3932Z" fill="#160B07"/>
<path d="M355.641 94.9142C355.69 94.9002 355.734 94.8706 355.765 94.8298C355.796 94.789 355.814 94.7393 355.815 94.6878C355.816 94.6364 355.8 94.586 355.77 94.5441C355.741 94.5022 355.698 94.471 355.649 94.4551C354.698 94.1734 353.681 94.2047 352.748 94.5445C352.689 94.5685 352.642 94.6149 352.618 94.6735C352.593 94.7322 352.592 94.7982 352.616 94.8572C352.64 94.9162 352.687 94.9633 352.745 94.988C352.804 95.0128 352.87 95.0133 352.929 94.9893C353.757 94.6944 354.656 94.6673 355.5 94.9117C355.546 94.9265 355.595 94.9274 355.641 94.9142V94.9142Z" fill="#160B07"/>
<path d="M361.562 97.4655C361.076 97.1118 360.522 96.8625 359.935 96.7334C359.649 96.6819 359.355 96.6901 359.072 96.7577C358.781 96.8346 358.503 96.9567 358.25 97.1195C358.456 96.8774 358.72 96.692 359.018 96.5809C359.324 96.4677 359.655 96.4387 359.976 96.4969C360.29 96.5561 360.591 96.675 360.861 96.8471C361.129 97.0105 361.367 97.2198 361.562 97.4655V97.4655Z" fill="#160B07"/>
<path d="M359.38 97.6656C359.677 97.6656 359.919 97.4246 359.919 97.1272C359.919 96.8299 359.677 96.5889 359.38 96.5889C359.083 96.5889 358.842 96.8299 358.842 97.1272C358.842 97.4246 359.083 97.6656 359.38 97.6656Z" fill="#160B07"/>
<path d="M354.233 97.2646C354.53 97.2646 354.771 97.0236 354.771 96.7262C354.771 96.4289 354.53 96.1879 354.233 96.1879C353.936 96.1879 353.695 96.4289 353.695 96.7262C353.695 97.0236 353.936 97.2646 354.233 97.2646Z" fill="#160B07"/>
<path d="M356.05 97.1944C355.564 96.8406 355.01 96.5914 354.423 96.4623C354.137 96.4108 353.843 96.419 353.56 96.4866C353.268 96.5635 352.991 96.6856 352.737 96.8484C352.943 96.6063 353.208 96.4209 353.506 96.3098C353.812 96.1966 354.143 96.1676 354.463 96.2258C354.778 96.285 355.079 96.4039 355.349 96.5759C355.617 96.7394 355.854 96.9487 356.05 97.1944V97.1944Z" fill="#160B07"/>
<path d="M366.07 96.176C365.956 96.0059 365.821 95.8514 365.667 95.7164C365.61 95.6584 365.533 95.6228 365.452 95.6159C365.371 95.609 365.29 95.6314 365.224 95.6789C365.072 95.7963 364.942 95.9401 364.84 96.1033C364.719 96.2687 364.622 96.4539 364.491 96.6276C364.526 96.4146 364.59 96.2073 364.68 96.0112C364.766 95.7978 364.91 95.6126 365.095 95.4762C365.15 95.4376 365.211 95.4103 365.276 95.3958C365.341 95.3812 365.409 95.3798 365.474 95.3915C365.599 95.417 365.711 95.4843 365.793 95.5823C365.938 95.751 366.034 95.9564 366.07 96.176V96.176Z" fill="#DD765E"/>
<path d="M365.266 97.8442C365.127 97.6876 365.033 97.4972 364.991 97.2922C364.943 97.09 364.926 96.8817 364.94 96.6744C364.953 96.4693 364.989 96.2663 365.049 96.0697L365.152 95.782C365.2 95.6906 365.24 95.5976 365.294 95.5103C365.261 95.9186 365.199 96.3021 365.18 96.6882C365.167 96.88 365.164 97.0725 365.173 97.2647C365.181 97.4608 365.213 97.6553 365.266 97.8442V97.8442Z" fill="#DD765E"/>
<path d="M365.602 100.229C366.192 100.229 366.67 99.7506 366.67 99.1604C366.67 98.5702 366.192 98.0918 365.602 98.0918C365.011 98.0918 364.533 98.5702 364.533 99.1604C364.533 99.7506 365.011 100.229 365.602 100.229Z" fill="#FFCB33"/>
<path d="M359.551 102.221C359.551 102.221 356.644 104.236 354.847 102.237Z" fill="#DD2F22"/>
<path d="M357.583 88.8203C358.338 88.9645 358.778 89.5177 359.657 90.6241C361.356 92.7613 362.443 95.7585 363.573 96.2461C363.699 96.3087 363.841 96.3308 363.98 96.3093C364.409 96.2259 364.557 95.6584 365.001 94.8487C365.336 94.2369 365.489 94.1272 365.685 93.784C366.029 93.1111 366.209 92.3668 366.211 91.6113C366.214 90.8558 366.039 90.1103 365.7 89.4351C365.059 88.3133 364.016 87.4764 362.782 87.0934C360.952 86.4904 358.959 86.62 357.223 87.4552C356.069 87.9702 355.035 88.7213 354.189 89.6601C353.343 90.5988 352.702 91.7045 352.31 92.9057C352.469 93.0254 355.067 88.3396 357.583 88.8203Z" fill="#160B07"/>
<path d="M352.639 109.29C352.639 109.29 360.326 126.745 359.906 139.741C359.485 152.738 362.214 167.426 362.214 167.426C362.214 167.426 360.332 169.288 357.426 167.426C356.683 166.882 355.785 166.589 354.864 166.589C353.942 166.589 353.044 166.882 352.301 167.426C352.301 167.426 349.367 168.047 348.53 166.185C347.693 164.323 349.912 143.631 349.424 138.772C348.935 133.912 349.79 116.603 346.673 113.465C346.673 113.465 348.069 108.251 352.639 109.29Z" fill="#FFBA55"/>
<path d="M382.291 149.087H300.705V156.056H382.291V149.087Z" fill="#F73C4F"/>
<path d="M422.784 174.051H218.056V340.652H422.784V174.051Z" fill="#D6694B"/>
<path d="M396.47 194.27H244.371C241.589 194.27 239.334 196.525 239.334 199.307V315.396C239.334 318.178 241.589 320.433 244.371 320.433H396.47C399.252 320.433 401.507 318.178 401.507 315.396V199.307C401.507 196.525 399.252 194.27 396.47 194.27Z" fill="#935B50"/>
<path d="M392.582 275.966H248.257C247.39 275.95 246.566 275.592 245.963 274.969C245.361 274.346 245.03 273.51 245.043 272.643V242.059C245.03 241.193 245.361 240.357 245.963 239.734C246.566 239.111 247.39 238.752 248.257 238.736H392.582C393.449 238.752 394.274 239.111 394.876 239.734C395.479 240.356 395.81 241.193 395.796 242.059V272.643C395.81 273.51 395.479 274.346 394.876 274.969C394.274 275.592 393.449 275.951 392.582 275.966ZM248.257 239.815C247.672 239.825 247.114 240.068 246.708 240.488C246.301 240.909 246.077 241.474 246.086 242.059V272.643C246.077 273.229 246.301 273.793 246.708 274.214C247.114 274.635 247.672 274.877 248.257 274.888H392.582C393.168 274.877 393.725 274.635 394.132 274.214C394.539 273.794 394.762 273.229 394.753 272.643V242.059C394.762 241.474 394.539 240.909 394.132 240.488C393.725 240.068 393.168 239.825 392.582 239.815H248.257Z" fill="#E19974"/>
<path d="M392.582 315.931H248.257C247.39 315.915 246.566 315.556 245.963 314.933C245.361 314.31 245.03 313.474 245.043 312.608V282.024C245.03 281.157 245.361 280.321 245.963 279.698C246.566 279.075 247.39 278.717 248.257 278.701H392.582C393.449 278.716 394.274 279.075 394.876 279.698C395.479 280.321 395.81 281.157 395.796 282.024V312.608C395.81 313.474 395.479 314.311 394.876 314.933C394.274 315.556 393.449 315.915 392.582 315.931V315.931ZM248.257 279.779C247.672 279.79 247.114 280.032 246.708 280.453C246.301 280.874 246.077 281.438 246.086 282.024V312.608C246.077 313.193 246.301 313.758 246.708 314.179C247.114 314.599 247.672 314.842 248.257 314.852H392.582C393.168 314.842 393.725 314.599 394.132 314.179C394.539 313.758 394.762 313.193 394.753 312.608V282.024C394.762 281.438 394.539 280.873 394.132 280.453C393.725 280.032 393.168 279.79 392.582 279.779H248.257Z" fill="#E19974"/>
<path d="M272.576 252.496C272.703 252.247 272.77 251.972 272.772 251.692C272.779 251.464 272.741 251.236 272.659 251.022C272.577 250.809 272.452 250.614 272.294 250.45C272.135 250.286 271.944 250.155 271.734 250.065C271.523 249.976 271.297 249.93 271.068 249.93C270.839 249.93 270.613 249.976 270.403 250.065C270.192 250.155 270.002 250.286 269.843 250.45C269.684 250.614 269.56 250.809 269.477 251.022C269.395 251.236 269.357 251.464 269.365 251.692C269.366 251.972 269.433 252.247 269.56 252.496C267.798 252.868 266.236 253.88 265.176 255.337C264.116 256.793 263.633 258.591 263.82 260.383C264.007 262.174 264.851 263.833 266.189 265.039C267.528 266.245 269.265 266.912 271.067 266.912C272.868 266.913 274.606 266.246 275.944 265.04C277.283 263.834 278.127 262.176 278.315 260.384C278.503 258.592 278.02 256.795 276.96 255.338C275.9 253.881 274.338 252.869 272.576 252.496H272.576ZM271.068 264.841C270.076 264.874 269.097 264.61 268.256 264.083C267.416 263.556 266.751 262.79 266.349 261.883C265.946 260.976 265.823 259.97 265.997 258.993C266.17 258.016 266.631 257.113 267.321 256.4C268.01 255.686 268.897 255.195 269.868 254.989C270.839 254.784 271.849 254.872 272.769 255.244C273.689 255.616 274.476 256.254 275.031 257.077C275.586 257.9 275.882 258.869 275.883 259.862C275.902 261.16 275.407 262.413 274.504 263.346C273.602 264.28 272.366 264.817 271.068 264.841V264.841Z" fill="#E19974"/>
<path d="M372.253 252.496C372.38 252.247 372.448 251.972 372.449 251.692C372.457 251.464 372.418 251.236 372.336 251.023C372.254 250.809 372.13 250.615 371.971 250.45C371.812 250.286 371.622 250.155 371.411 250.066C371.201 249.977 370.974 249.931 370.746 249.931C370.517 249.931 370.291 249.977 370.08 250.066C369.87 250.155 369.679 250.286 369.52 250.45C369.362 250.615 369.237 250.809 369.155 251.023C369.073 251.236 369.035 251.464 369.042 251.692C369.044 251.972 369.111 252.247 369.238 252.496C367.476 252.868 365.914 253.881 364.854 255.337C363.794 256.794 363.311 258.591 363.499 260.383C363.686 262.174 364.53 263.833 365.869 265.038C367.207 266.244 368.944 266.911 370.746 266.911C372.547 266.911 374.284 266.244 375.623 265.038C376.961 263.833 377.805 262.174 377.993 260.383C378.18 258.591 377.697 256.794 376.637 255.337C375.578 253.881 374.016 252.868 372.253 252.496V252.496ZM370.746 264.841C369.754 264.874 368.775 264.61 367.934 264.083C367.093 263.556 366.429 262.79 366.026 261.883C365.624 260.976 365.501 259.97 365.674 258.993C365.848 258.016 366.309 257.113 366.998 256.4C367.688 255.686 368.575 255.195 369.546 254.989C370.517 254.784 371.527 254.872 372.446 255.244C373.366 255.616 374.154 256.254 374.709 257.077C375.264 257.9 375.56 258.869 375.56 259.862C375.58 261.16 375.085 262.413 374.182 263.346C373.28 264.279 372.044 264.817 370.746 264.841V264.841Z" fill="#E19974"/>
<path d="M392.582 236.002H248.257C247.39 235.986 246.566 235.627 245.963 235.005C245.361 234.382 245.03 233.545 245.043 232.679V202.095C245.03 201.229 245.361 200.392 245.963 199.769C246.566 199.146 247.39 198.788 248.257 198.772H392.582C393.449 198.788 394.274 199.146 394.876 199.769C395.479 200.392 395.81 201.228 395.796 202.095V232.679C395.81 233.545 395.479 234.382 394.876 235.005C394.274 235.628 393.449 235.986 392.582 236.002V236.002ZM248.257 199.85C247.672 199.861 247.114 200.103 246.708 200.524C246.301 200.945 246.077 201.51 246.086 202.095V232.679C246.077 233.264 246.301 233.829 246.708 234.25C247.114 234.671 247.672 234.913 248.257 234.923H392.582C393.168 234.913 393.725 234.671 394.132 234.25C394.539 233.829 394.762 233.264 394.753 232.679V202.095C394.762 201.51 394.539 200.945 394.132 200.524C393.725 200.103 393.168 199.861 392.582 199.85H248.257Z" fill="#E19974"/>
<path d="M272.576 212.532C272.703 212.283 272.77 212.007 272.772 211.728C272.779 211.499 272.741 211.271 272.659 211.058C272.577 210.845 272.452 210.65 272.294 210.486C272.135 210.321 271.944 210.19 271.734 210.101C271.523 210.012 271.297 209.966 271.068 209.966C270.839 209.966 270.613 210.012 270.403 210.101C270.192 210.19 270.002 210.321 269.843 210.486C269.684 210.65 269.56 210.845 269.477 211.058C269.395 211.271 269.357 211.499 269.365 211.728C269.366 212.007 269.433 212.282 269.56 212.531C267.798 212.904 266.236 213.916 265.176 215.373C264.116 216.829 263.633 218.627 263.82 220.418C264.007 222.21 264.851 223.869 266.189 225.075C267.528 226.28 269.265 226.948 271.067 226.948C272.868 226.948 274.606 226.281 275.944 225.076C277.283 223.87 278.127 222.211 278.315 220.42C278.503 218.628 278.02 216.83 276.96 215.374C275.9 213.917 274.338 212.905 272.576 212.532H272.576ZM271.068 224.876C270.076 224.909 269.097 224.646 268.256 224.119C267.416 223.592 266.751 222.826 266.349 221.919C265.946 221.012 265.823 220.006 265.997 219.029C266.17 218.052 266.631 217.148 267.321 216.435C268.01 215.722 268.897 215.231 269.868 215.025C270.839 214.819 271.849 214.908 272.769 215.28C273.689 215.652 274.476 216.29 275.031 217.113C275.586 217.935 275.882 218.905 275.883 219.897C275.902 221.195 275.407 222.449 274.504 223.382C273.602 224.315 272.366 224.853 271.068 224.876V224.876Z" fill="#E19974"/>
<path d="M372.253 212.531C372.38 212.282 372.447 212.007 372.449 211.728C372.457 211.499 372.418 211.272 372.336 211.058C372.254 210.845 372.13 210.65 371.971 210.486C371.812 210.322 371.622 210.191 371.411 210.102C371.201 210.012 370.974 209.966 370.746 209.966C370.517 209.966 370.291 210.012 370.08 210.102C369.87 210.191 369.679 210.322 369.52 210.486C369.362 210.65 369.237 210.845 369.155 211.058C369.073 211.272 369.035 211.499 369.042 211.728C369.044 212.007 369.111 212.282 369.238 212.531C367.476 212.904 365.914 213.916 364.854 215.373C363.794 216.829 363.311 218.627 363.499 220.418C363.686 222.21 364.53 223.868 365.869 225.074C367.207 226.28 368.944 226.947 370.746 226.947C372.547 226.947 374.284 226.28 375.623 225.074C376.961 223.868 377.805 222.21 377.993 220.418C378.18 218.627 377.697 216.829 376.637 215.373C375.578 213.916 374.016 212.904 372.253 212.531V212.531ZM370.746 224.876C369.754 224.909 368.775 224.646 367.934 224.119C367.093 223.592 366.429 222.826 366.026 221.919C365.624 221.012 365.501 220.006 365.674 219.029C365.848 218.051 366.309 217.148 366.998 216.435C367.688 215.722 368.575 215.231 369.546 215.025C370.517 214.819 371.527 214.908 372.446 215.28C373.366 215.652 374.154 216.29 374.709 217.113C375.264 217.935 375.56 218.905 375.56 219.897C375.58 221.195 375.085 222.448 374.182 223.382C373.28 224.315 372.044 224.853 370.746 224.876Z" fill="#E19974"/>
<path d="M272.576 289.847C272.703 289.598 272.77 289.323 272.771 289.044C272.779 288.815 272.741 288.587 272.659 288.374C272.576 288.161 272.452 287.966 272.293 287.801C272.134 287.637 271.944 287.506 271.733 287.417C271.523 287.328 271.297 287.282 271.068 287.282C270.839 287.282 270.613 287.328 270.402 287.417C270.192 287.506 270.001 287.637 269.842 287.801C269.684 287.966 269.559 288.161 269.477 288.374C269.395 288.587 269.357 288.815 269.364 289.044C269.366 289.323 269.433 289.598 269.56 289.847C267.797 290.22 266.236 291.232 265.176 292.688C264.116 294.145 263.633 295.942 263.821 297.734C264.008 299.525 264.853 301.184 266.191 302.389C267.529 303.595 269.267 304.262 271.068 304.262C272.869 304.262 274.607 303.595 275.945 302.389C277.283 301.184 278.127 299.525 278.315 297.734C278.502 295.942 278.02 294.145 276.96 292.688C275.9 291.232 274.338 290.22 272.576 289.847H272.576ZM271.068 302.192C270.076 302.226 269.097 301.962 268.256 301.435C267.415 300.908 266.75 300.142 266.347 299.235C265.945 298.328 265.822 297.321 265.995 296.344C266.168 295.367 266.629 294.464 267.319 293.75C268.009 293.037 268.896 292.546 269.867 292.34C270.838 292.134 271.848 292.223 272.768 292.595C273.688 292.967 274.476 293.606 275.031 294.428C275.586 295.251 275.882 296.221 275.882 297.214C275.902 298.512 275.407 299.765 274.504 300.698C273.602 301.631 272.366 302.169 271.068 302.192V302.192Z" fill="#E19974"/>
<path d="M372.254 289.847C372.381 289.598 372.447 289.323 372.449 289.044C372.457 288.815 372.418 288.587 372.336 288.374C372.254 288.161 372.13 287.966 371.971 287.802C371.812 287.637 371.621 287.507 371.411 287.417C371.201 287.328 370.974 287.282 370.746 287.282C370.517 287.282 370.291 287.328 370.08 287.417C369.87 287.507 369.679 287.637 369.52 287.802C369.361 287.966 369.237 288.161 369.155 288.374C369.073 288.587 369.034 288.815 369.042 289.044C369.044 289.323 369.111 289.598 369.238 289.847C367.475 290.219 365.914 291.232 364.854 292.688C363.794 294.145 363.311 295.942 363.499 297.734C363.686 299.525 364.53 301.184 365.869 302.389C367.207 303.595 368.944 304.262 370.746 304.262C372.547 304.262 374.284 303.595 375.623 302.389C376.961 301.184 377.805 299.525 377.993 297.734C378.18 295.942 377.697 294.145 376.638 292.688C375.578 291.232 374.016 290.219 372.254 289.847ZM370.746 302.192C369.754 302.226 368.775 301.962 367.934 301.435C367.093 300.908 366.428 300.142 366.025 299.235C365.623 298.328 365.5 297.321 365.673 296.344C365.846 295.367 366.307 294.464 366.997 293.75C367.687 293.037 368.574 292.546 369.545 292.34C370.516 292.134 371.526 292.223 372.446 292.595C373.366 292.967 374.154 293.606 374.709 294.428C375.264 295.251 375.56 296.221 375.56 297.213C375.58 298.512 375.084 299.765 374.182 300.698C373.279 301.631 372.044 302.169 370.746 302.192V302.192Z" fill="#E19974"/>
<path d="M131.617 164.884L152.093 154.779C152.328 154.662 152.6 154.643 152.849 154.726C153.098 154.808 153.305 154.985 153.425 155.218L154.508 157.324C154.568 157.442 154.605 157.572 154.615 157.705C154.625 157.837 154.609 157.971 154.567 158.097C154.525 158.223 154.458 158.34 154.37 158.44C154.283 158.54 154.176 158.622 154.056 158.68L133.597 168.646L131.617 164.884Z" fill="#4F66D0"/>
<path d="M122.604 169.571C122.604 169.571 131.483 157.558 133.633 158.262C135.783 158.967 132.754 165.302 132.754 165.302L137.269 166.782L150.853 160.243C151.036 160.155 151.235 160.106 151.438 160.098C151.641 160.09 151.843 160.124 152.032 160.198C152.221 160.272 152.393 160.383 152.537 160.526C152.682 160.67 152.795 160.841 152.87 161.029V161.029C152.966 161.271 152.997 161.534 152.96 161.792C152.922 162.049 152.817 162.293 152.655 162.496C150.336 165.422 137.033 179.278 125.819 179.057L122.604 169.571Z" fill="#F9977A"/>
<path d="M153.971 303.433L158.205 315.939C158.205 315.939 173.902 328.625 194.109 332.166C194.109 332.166 200.268 335.057 200.231 339.539L139.275 339.03L139.469 315.783L137.688 303.838L153.971 303.433Z" fill="#F9977A"/>
<path d="M199.26 336.496L139.958 336.001C139.759 335.999 139.561 336.037 139.377 336.112C139.193 336.186 139.025 336.296 138.883 336.436C138.741 336.575 138.628 336.741 138.55 336.924C138.473 337.108 138.432 337.304 138.43 337.503V337.508C138.427 337.91 138.583 338.297 138.865 338.583C139.147 338.87 139.531 339.032 139.932 339.036L201.068 339.546C201.068 339.546 202.829 337.721 199.26 336.496Z" fill="#F73C4F"/>
<path d="M181.655 337.108C181.655 337.108 181.105 333.976 184.254 329.674C183.577 328.951 182.74 328.397 181.81 328.055C180.88 327.714 179.883 327.594 178.899 327.706C178.176 328.898 177.585 330.165 177.136 331.485C176.366 333.588 175.819 336.118 176.71 337.826L181.655 337.108Z" fill="#F73C4F"/>
<path d="M166.918 321.771C166.918 321.771 161.797 329.741 164.823 337.05L159.02 337.002C159.02 337.002 155.883 325.467 162.185 318.804C162.185 318.804 166.07 318.937 166.918 321.771Z" fill="#F73C4F"/>
<path d="M166.69 262.842L171.083 275.294C171.083 275.294 186.94 287.778 207.191 291.062C207.191 291.062 213.386 293.874 213.406 298.357L152.448 298.624L152.346 275.376L150.413 263.455L166.69 262.842Z" fill="#F9977A"/>
<path d="M212.396 295.326L153.092 295.587C152.69 295.588 152.306 295.75 152.023 296.035C151.74 296.32 151.582 296.706 151.584 297.108V297.113C151.586 297.515 151.747 297.9 152.032 298.183C152.318 298.465 152.704 298.623 153.105 298.622L214.243 298.353C214.243 298.353 215.981 296.506 212.396 295.326Z" fill="#F73C4F"/>
<path d="M194.8 296.163C194.8 296.163 194.21 293.038 197.305 288.695C196.618 287.981 195.774 287.438 194.84 287.108C193.906 286.779 192.907 286.672 191.925 286.796C191.217 287.997 190.642 289.272 190.21 290.597C189.467 292.71 188.952 295.247 189.865 296.943L194.8 296.163Z" fill="#F73C4F"/>
<path d="M179.869 281.014C179.869 281.014 174.85 289.048 177.968 296.319L172.166 296.344C172.166 296.344 168.881 284.85 175.098 278.108C175.098 278.108 178.985 278.192 179.869 281.014Z" fill="#F73C4F"/>
<path d="M93.4218 212.636L133.664 198.633C138.683 196.885 144.187 197.176 148.994 199.444C153.801 201.711 157.527 205.774 159.37 210.758C164.691 225.133 171.586 246.417 175.592 269.22C175.695 269.823 175.573 270.442 175.249 270.96C174.924 271.478 174.42 271.858 173.832 272.027L161.13 275.683L159.874 307.925C159.849 308.564 159.578 309.168 159.117 309.612C158.656 310.055 158.041 310.302 157.402 310.302H139.184C138.596 310.302 138.028 310.093 137.58 309.712C137.132 309.33 136.835 308.802 136.742 308.221L128.084 254.328L108.077 256.126C108.077 256.126 3.09622 277.482 19.7314 200.601L64.6912 202.853L69.9388 207.719C73.0381 210.592 76.8612 212.569 80.9982 213.435C85.1352 214.301 89.4299 214.025 93.4218 212.636V212.636Z" fill="#6C7FD8"/>
<path d="M84.9277 258.703C95.6717 253.512 106.49 248.485 117.305 243.45L133.575 236.003C138.993 233.507 144.425 231.045 149.874 228.618L149.797 228.66C150.347 228.346 150.958 228.152 151.588 228.09C152.219 228.029 152.855 228.1 153.456 228.301C154.588 228.717 155.578 229.448 156.31 230.407C157.648 232.229 158.638 234.281 159.232 236.462C160.392 240.712 161.097 245.073 161.337 249.472C161.871 258.203 161.802 266.961 161.13 275.683C161.181 271.316 161.273 266.952 161.166 262.591C161.062 258.232 160.916 253.874 160.494 249.544C160.143 245.225 159.377 240.95 158.206 236.778C157.638 234.739 156.701 232.822 155.444 231.119C154.843 230.333 154.031 229.733 153.103 229.39C152.664 229.248 152.201 229.197 151.742 229.24C151.283 229.283 150.838 229.419 150.433 229.64L150.375 229.673L150.356 229.682C144.938 232.175 139.506 234.639 134.061 237.074L117.737 244.403C106.823 249.219 95.9128 254.043 84.9277 258.703Z" fill="#4F66D0"/>
<path d="M174.22 262.006C172.259 263.188 170.183 264.168 168.024 264.929C165.883 265.743 163.665 266.333 161.403 266.692C163.363 265.507 165.439 264.528 167.599 263.769C169.74 262.958 171.959 262.367 174.22 262.006V262.006Z" fill="#4F66D0"/>
<path d="M135.634 301.325C139.702 300.887 143.791 300.681 147.883 300.707C151.974 300.678 156.063 300.884 160.131 301.325C156.063 301.767 151.974 301.973 147.883 301.943C143.791 301.97 139.702 301.764 135.634 301.325V301.325Z" fill="#4F66D0"/>
<path d="M128.084 254.327C127.184 253.464 126.453 252.441 125.927 251.311C125.358 250.201 125.003 248.994 124.881 247.752C125.783 248.614 126.515 249.637 127.038 250.769C127.605 251.88 127.959 253.087 128.084 254.327V254.327Z" fill="#4F66D0"/>
<path d="M69.9384 207.294C66.1538 203.213 66.2801 200.318 66.2425 195.751L64.5832 189.735C70.3092 202.788 84.22 200.116 84.22 200.116C91.1888 199.891 127.88 179.021 127.88 179.021L123.916 167.714L86.272 176.828C86.272 176.828 79.6965 165.194 73.1211 152.212C66.5458 139.23 58.808 133.635 58.808 133.635L38.7417 130.623C2.77369 133.77 19.7313 200.601 19.7313 200.601C3.09615 277.482 108.078 256.126 108.078 256.126C110.532 248.877 111.068 241.116 109.634 233.598C108.222 226.313 104.298 212.805 102.167 209.593C96.4528 209.593 89.3571 216.621 79.5856 212.415C72.9097 209.541 72.066 209.589 69.9384 207.294Z" fill="#F73C4F"/>
<path d="M86.2715 176.828C86.4101 177.522 86.3535 178.242 86.1079 178.906C85.8837 179.578 85.4745 180.174 84.9272 180.624C84.6935 179.932 84.699 179.182 84.9428 178.493C85.1865 177.805 85.6545 177.218 86.2715 176.828V176.828Z" fill="#B02336"/>
<path d="M77.2002 77.9185C77.2002 77.9185 78.0342 68.7299 68.951 74.9925C68.951 74.9925 63.7809 61.0224 47.5916 79.5922C47.5916 79.5922 23.8281 80.3586 32.7856 100.321C31.5066 103.245 29.7748 105.949 27.6538 108.333C21.1529 115.848 17.1908 114.978 11.6245 123.472C7.25457 130.139 6.81326 135.075 6.72675 136.384C6.37861 140.711 7.30747 145.046 9.39832 148.851C12.9377 155.106 20.2051 160.223 28.099 159.982C37.1569 159.707 41.7328 151.611 47.245 146.625C59.0494 135.947 59.4798 113.794 60.7644 109.997C60.7644 109.997 54.8155 106.315 59.709 102.577C60.2454 102.155 60.8681 101.856 61.533 101.701C62.1979 101.547 62.8886 101.541 63.5561 101.683C64.0083 101.726 64.4294 101.932 64.7403 102.263C65.0512 102.594 65.2305 103.028 65.2444 103.482L72.0489 90.6629C72.0489 90.6629 78.215 92.4852 78.2922 85.0691C78.2921 85.0691 84.9113 81.6395 77.2002 77.9185Z" fill="#160B07"/>
<path d="M5.00654 240.727C5.00654 240.727 -2.74903 217.461 3.32054 169.916C3.32054 169.916 5.68093 153.899 21.5293 152.718C37.3776 151.538 49.011 177.227 53.7318 203.498C58.4525 229.768 68.9057 253.25 103.131 253.901C103.131 253.901 148.356 261.634 52.0657 266.017C52.0657 266.017 10.9075 266.354 5.00654 240.727Z" fill="#FFBA55"/>
<path d="M148.447 158.644C148.836 158.631 149.204 158.467 149.475 158.187C149.745 157.907 149.896 157.533 149.896 157.144C149.896 156.755 149.745 156.381 149.475 156.101C149.204 155.821 148.836 155.658 148.447 155.644C148.058 155.658 147.69 155.821 147.419 156.101C147.149 156.381 146.998 156.755 146.998 157.144C146.998 157.533 147.149 157.907 147.419 158.187C147.69 158.467 148.058 158.631 148.447 158.644V158.644Z" fill="#4F66D0"/>
<path d="M142.642 161.299C143.031 161.286 143.4 161.122 143.67 160.842C143.94 160.562 144.091 160.188 144.091 159.799C144.091 159.41 143.94 159.036 143.67 158.757C143.4 158.477 143.031 158.313 142.642 158.299C142.253 158.313 141.885 158.477 141.615 158.757C141.344 159.036 141.193 159.41 141.193 159.799C141.193 160.188 141.344 160.562 141.615 160.842C141.885 161.122 142.253 161.286 142.642 161.299V161.299Z" fill="#4F66D0"/>
<path d="M501 341.651H1C0.734784 341.651 0.480429 341.546 0.292892 341.358C0.105356 341.171 0 340.917 0 340.651C0 340.386 0.105356 340.132 0.292892 339.944C0.480429 339.757 0.734784 339.651 1 339.651H501C501.265 339.651 501.52 339.757 501.707 339.944C501.895 340.132 502 340.386 502 340.651C502 340.917 501.895 341.171 501.707 341.358C501.52 341.546 501.265 341.651 501 341.651Z" fill="#935B50"/>
<path d="M455.902 313.407C454.966 307.892 454.427 302.317 454.289 296.726C454.127 291.128 454.348 285.526 454.949 279.958C455.575 274.387 456.723 268.886 458.378 263.529C459.246 260.865 460.268 258.254 461.438 255.708C462.662 253.193 464.061 250.766 465.626 248.447C462.702 253.2 460.424 258.322 458.851 263.676C458.082 266.351 457.388 269.047 456.848 271.778C456.322 274.512 455.902 277.263 455.589 280.031C454.966 285.57 454.697 291.143 454.782 296.716C454.808 299.503 454.915 302.289 455.105 305.074C455.281 307.857 455.518 310.641 455.902 313.407Z" fill="#50661A"/>
<path d="M455.902 271.57C455.902 271.57 426.52 275.271 413.733 262.663C404.244 253.306 413.269 237.203 426.274 240.112C434.98 242.06 445.719 249.799 455.902 271.57Z" fill="#5E7C24"/>
<path d="M455.902 271.57C451.778 270.315 447.718 268.845 443.722 267.217C439.728 265.585 435.812 263.772 431.974 261.775C430.065 260.764 428.192 259.686 426.355 258.542C424.508 257.415 422.726 256.184 421.02 254.853C419.303 253.53 417.698 252.07 416.219 250.487C414.748 248.894 413.555 247.065 412.691 245.076C413.643 247.007 414.914 248.763 416.449 250.271C417.958 251.795 419.587 253.196 421.32 254.459C424.79 256.991 428.452 259.247 432.275 261.207C436.059 263.243 439.972 265.038 443.913 266.763C445.885 267.624 447.872 268.451 449.874 269.245C451.868 270.058 453.874 270.842 455.902 271.57Z" fill="#50661A"/>
<path d="M424.041 256.713L424.07 252.378C424.062 250.938 424.07 249.499 423.989 248.065C423.943 246.635 423.816 245.207 423.608 243.791L423.408 242.741C423.337 242.392 423.215 242.06 423.123 241.715C423.017 241.375 422.888 241.044 422.735 240.722C422.562 240.408 422.369 240.106 422.158 239.816C423.182 240.883 423.857 242.237 424.094 243.696C424.382 245.128 424.562 246.579 424.631 248.038C424.66 249.493 424.661 250.946 424.563 252.395C424.475 253.843 424.301 255.285 424.041 256.713V256.713Z" fill="#50661A"/>
<path d="M410.213 256.713C411.94 256.413 413.644 256.165 415.309 255.781C416.134 255.595 416.942 255.34 417.726 255.021C418.528 254.738 419.199 254.172 419.614 253.429C419.508 253.872 419.304 254.285 419.017 254.638C418.73 254.991 418.367 255.274 417.955 255.468C417.169 255.893 416.328 256.209 415.456 256.408C413.737 256.8 411.966 256.903 410.213 256.713Z" fill="#50661A"/>
<path d="M415.525 264.241C417.829 263.947 420.108 263.488 422.346 262.87C423.444 262.564 424.497 262.113 425.475 261.528C426.477 260.963 427.222 260.034 427.557 258.935C427.502 259.538 427.312 260.121 427.001 260.641C426.691 261.162 426.267 261.606 425.762 261.94C424.783 262.638 423.69 263.162 422.533 263.487C420.259 264.146 417.887 264.401 415.525 264.241V264.241Z" fill="#50661A"/>
<path d="M431.954 261.406C432.444 259.97 432.897 258.531 433.303 257.083C433.701 255.632 434.094 254.181 434.353 252.703C435.004 249.768 435.14 246.742 434.755 243.76C435.212 245.219 435.443 246.74 435.442 248.27C435.419 249.799 435.266 251.323 434.985 252.826C434.676 254.319 434.271 255.79 433.774 257.231C433.281 258.67 432.673 260.066 431.954 261.406V261.406Z" fill="#50661A"/>
<path d="M427.557 269.908C428.493 269.662 429.4 269.355 430.287 269.027C431.17 268.703 432.021 268.299 432.829 267.819C433.627 267.348 434.351 266.761 434.977 266.077C435.573 265.346 436.029 264.511 436.319 263.613C436.262 264.606 435.936 265.565 435.374 266.386C434.773 267.187 434.021 267.861 433.16 268.372C432.311 268.873 431.396 269.254 430.442 269.503C429.503 269.766 428.532 269.902 427.557 269.908V269.908Z" fill="#50661A"/>
<path d="M442.445 250.375C443.087 251.583 443.552 252.877 443.827 254.217C444.105 255.566 444.213 256.944 444.149 258.319C444.072 259.699 443.781 261.059 443.288 262.35C442.798 263.631 442.093 264.82 441.205 265.865C441.876 264.702 442.417 263.469 442.819 262.188C443.224 260.923 443.456 259.609 443.507 258.283C443.592 256.954 443.536 255.62 443.341 254.303C443.152 252.971 442.853 251.657 442.445 250.375Z" fill="#50661A"/>
<path d="M440.545 271.57C441.613 271.035 442.662 270.576 443.669 270.037C444.694 269.52 445.643 268.865 446.488 268.089C445.965 269.193 445.076 270.082 443.972 270.605C442.914 271.173 441.744 271.503 440.545 271.57Z" fill="#50661A"/>
<path d="M449.847 260.289C450.43 261.746 450.771 263.289 450.856 264.856C450.91 265.646 450.872 266.439 450.743 267.22C450.641 268.014 450.332 268.767 449.847 269.403C450.097 268.682 450.23 267.926 450.243 267.163C450.276 266.406 450.266 265.648 450.213 264.892C450.134 263.37 449.951 261.851 449.847 260.289Z" fill="#50661A"/>
<path d="M454.834 271.422C454.834 271.422 431.941 252.636 432.301 234.682C432.568 221.358 450.466 216.837 457.297 228.279C461.871 235.939 463.637 249.057 454.834 271.422Z" fill="#C4CE6E"/>
<path d="M454.834 271.422C452.851 267.587 451.068 263.653 449.49 259.634C447.899 255.619 446.509 251.528 445.318 247.362C444.743 245.276 444.242 243.17 443.814 241.045C443.362 238.923 443.038 236.776 442.845 234.616C442.641 232.452 442.613 230.276 442.763 228.108C442.921 225.939 443.459 223.815 444.352 221.832C443.648 223.861 443.277 225.99 443.252 228.137C443.2 230.275 443.32 232.414 443.61 234.533C444.178 238.782 445.07 242.981 446.28 247.094C447.388 251.24 448.777 255.31 450.207 259.364C450.922 261.392 451.672 263.408 452.457 265.413C453.209 267.43 454.023 269.424 454.834 271.422Z" fill="#8B9D36"/>
<path d="M443.71 238.074C445.741 235.985 447.831 234.018 449.824 231.965C450.818 230.939 451.777 229.887 452.677 228.79C453.114 228.236 453.518 227.656 453.888 227.055C454.073 226.754 454.235 226.44 454.376 226.116C454.496 225.779 454.598 225.435 454.682 225.087C454.68 226.583 454.2 228.039 453.312 229.244C452.493 230.464 451.566 231.607 450.542 232.661C448.509 234.754 446.213 236.574 443.71 238.074V238.074Z" fill="#8B9D36"/>
<path d="M434.2 228.035C435.705 228.981 437.065 230.015 438.479 230.945C439.171 231.409 439.893 231.826 440.641 232.194C441.375 232.597 442.223 232.741 443.049 232.602C442.662 232.864 442.219 233.031 441.755 233.088C441.292 233.145 440.821 233.091 440.382 232.93C439.512 232.671 438.685 232.283 437.929 231.78C436.444 230.799 435.175 229.525 434.2 228.035V228.035Z" fill="#8B9D36"/>
<path d="M432.388 237.069C434.333 238.411 436.182 239.795 438.162 240.923C439.125 241.502 440.155 241.961 441.228 242.291C442.304 242.647 443.472 242.598 444.515 242.154C444.051 242.563 443.498 242.858 442.899 243.014C442.301 243.171 441.674 243.184 441.07 243.055C439.868 242.844 438.714 242.416 437.666 241.792C436.635 241.19 435.668 240.486 434.78 239.688C433.887 238.908 433.084 238.029 432.388 237.069Z" fill="#8B9D36"/>
<path d="M445.744 247.046C447.103 246.357 448.428 245.637 449.749 244.925C451.06 244.194 452.364 243.462 453.617 242.653C454.873 241.856 456.087 240.994 457.254 240.07C458.414 239.119 459.494 238.074 460.482 236.945C459.793 238.323 458.878 239.576 457.775 240.651C456.665 241.717 455.452 242.671 454.153 243.497C451.568 245.142 448.726 246.342 445.744 247.046Z" fill="#8B9D36"/>
<path d="M436.548 249.701C437.421 250.147 438.275 250.568 439.132 250.956C439.974 251.346 440.845 251.668 441.738 251.921C442.61 252.171 443.511 252.304 444.418 252.315C445.352 252.269 446.273 252.073 447.143 251.733C446.417 252.442 445.494 252.915 444.494 253.092C443.483 253.234 442.452 253.163 441.469 252.883C440.508 252.608 439.595 252.188 438.76 251.638C437.924 251.114 437.177 250.46 436.548 249.701V249.701Z" fill="#8B9D36"/>
<path d="M460.968 247.076C460.181 249.747 458.622 252.126 456.487 253.913C455.95 254.36 455.384 254.77 454.793 255.141C454.494 255.32 454.175 255.468 453.868 255.633C453.564 255.804 453.244 255.945 452.912 256.053C451.625 256.562 450.254 256.825 448.869 256.828C450.153 256.45 451.399 255.952 452.59 255.342C453.757 254.743 454.849 254.007 455.842 253.149C456.849 252.299 457.778 251.36 458.618 250.344C459.473 249.308 460.259 248.217 460.968 247.076V247.076Z" fill="#8B9D36"/>
<path d="M444.273 260.273C445.47 260.56 446.521 260.969 447.592 261.318C448.665 261.699 449.768 261.992 450.888 262.194C450.331 262.479 449.71 262.616 449.085 262.592C448.469 262.572 447.859 262.462 447.274 262.266C446.7 262.069 446.151 261.803 445.641 261.474C445.121 261.153 444.658 260.748 444.273 260.273V260.273Z" fill="#8B9D36"/>
<path d="M458.86 259.268C458.602 260.017 458.251 260.731 457.816 261.393C457.392 262.06 456.907 262.686 456.367 263.263C455.824 263.852 455.205 264.367 454.528 264.795C453.856 265.262 453.061 265.519 452.243 265.535C452.904 265.16 453.514 264.702 454.058 264.172C454.601 263.663 455.132 263.136 455.64 262.577C456.687 261.487 457.681 260.338 458.86 259.268Z" fill="#8B9D36"/>
<path d="M454.146 302.888C454.146 302.888 424.551 303.952 412.94 290.254C404.324 280.088 414.75 264.854 427.444 268.912C435.941 271.629 445.947 280.295 454.146 302.888Z" fill="#C4CE6E"/>
<path d="M454.146 302.888C450.122 301.325 446.181 299.555 442.339 297.586C438.49 295.628 434.74 293.471 431.09 291.146C429.279 289.962 427.51 288.715 425.783 287.405C424.04 286.114 422.376 284.719 420.802 283.227C419.217 281.74 417.756 280.126 416.434 278.402C415.117 276.671 414.115 274.722 413.472 272.645C414.287 274.631 415.417 276.474 416.82 278.1C418.196 279.737 419.701 281.262 421.321 282.659C424.558 285.469 428.006 288.026 431.634 290.309C435.209 292.684 438.943 294.816 442.698 296.91C444.576 297.957 446.472 298.973 448.387 299.956C450.287 300.97 452.216 301.927 454.146 302.888Z" fill="#8B9D36"/>
<path d="M423.738 285.247C423.878 282.337 424.143 279.479 424.279 276.621C424.346 275.194 424.368 273.77 424.318 272.353C424.278 271.648 424.198 270.946 424.078 270.251C424.017 269.903 423.931 269.56 423.821 269.224C423.689 268.891 423.538 268.566 423.37 268.25C424.359 269.373 424.963 270.782 425.094 272.273C425.287 273.729 425.349 275.2 425.278 276.668C425.139 279.583 424.622 282.467 423.738 285.247Z" fill="#8B9D36"/>
<path d="M409.965 284.014C411.719 283.728 413.423 283.602 415.099 283.364C415.925 283.254 416.743 283.088 417.547 282.869C418.363 282.686 419.094 282.232 419.621 281.582C419.505 282.035 419.283 282.453 418.973 282.803C418.663 283.152 418.275 283.423 417.839 283.592C417.016 283.974 416.139 284.231 415.239 284.354C413.476 284.601 411.682 284.485 409.965 284.014V284.014Z" fill="#8B9D36"/>
<path d="M414.584 291.986C416.93 291.705 419.233 291.519 421.464 291.055C422.569 290.851 423.644 290.514 424.668 290.05C425.71 289.606 426.554 288.796 427.041 287.773C426.964 288.387 426.744 288.974 426.399 289.487C426.054 290.001 425.593 290.426 425.054 290.729C424.014 291.366 422.866 291.809 421.667 292.033C420.496 292.265 419.304 292.377 418.111 292.366C416.925 292.373 415.742 292.245 414.584 291.986Z" fill="#8B9D36"/>
<path d="M431.201 290.628C431.764 289.212 432.28 287.795 432.8 286.387C433.299 284.972 433.792 283.56 434.196 282.125C434.611 280.695 434.951 279.245 435.214 277.781C435.455 276.3 435.573 274.802 435.566 273.302C435.961 274.791 436.104 276.335 435.989 277.872C435.862 279.406 435.584 280.923 435.156 282.402C434.308 285.346 432.971 288.127 431.201 290.628V290.628Z" fill="#8B9D36"/>
<path d="M426.062 298.704C427.013 298.46 427.931 298.211 428.83 297.935C429.719 297.67 430.586 297.335 431.423 296.934C432.242 296.544 433.006 296.047 433.693 295.455C434.363 294.803 434.923 294.047 435.351 293.216C435.275 294.228 434.897 295.194 434.264 295.988C433.6 296.764 432.78 297.392 431.858 297.833C430.955 298.262 429.993 298.552 429.003 298.693C428.03 298.853 427.037 298.857 426.062 298.704Z" fill="#8B9D36"/>
<path d="M442.634 280.576C443.812 283.099 444.217 285.915 443.799 288.667C443.692 289.357 443.539 290.039 443.341 290.709C443.236 291.042 443.095 291.363 442.974 291.689C442.859 292.019 442.712 292.337 442.535 292.637C441.907 293.871 441.053 294.976 440.017 295.894C440.729 294.761 441.334 293.563 441.823 292.317C442.301 291.096 442.633 289.821 442.81 288.521C443.002 287.217 443.077 285.899 443.034 284.582C442.991 283.239 442.857 281.901 442.634 280.576Z" fill="#8B9D36"/>
<path d="M438.851 301.518C439.937 300.941 440.996 300.552 442.03 300.105C443.087 299.681 444.107 299.171 445.081 298.581C444.852 299.163 444.477 299.677 443.992 300.072C443.517 300.465 442.987 300.786 442.419 301.026C441.858 301.259 441.27 301.422 440.67 301.514C440.068 301.617 439.453 301.619 438.851 301.518Z" fill="#8B9D36"/>
<path d="M449.121 291.111C449.423 291.844 449.633 292.611 449.745 293.396C449.868 294.176 449.919 294.966 449.896 295.756C449.878 296.558 449.755 297.353 449.531 298.123C449.336 298.917 448.91 299.636 448.308 300.189C448.555 299.47 448.709 298.723 448.766 297.966C448.836 297.225 448.886 296.478 448.897 295.723C448.961 294.213 448.945 292.694 449.121 291.111Z" fill="#8B9D36"/>
<path d="M455.895 273.558C455.895 273.558 485.431 275.702 497.534 262.436C506.516 252.591 496.652 236.987 483.819 240.579C475.228 242.984 464.913 251.279 455.895 273.558Z" fill="#5E7C24"/>
<path d="M455.895 273.558C457.881 272.724 459.844 271.834 461.792 270.917C463.747 270.016 465.687 269.085 467.613 268.124C471.457 266.193 475.27 264.194 478.942 261.96C482.655 259.802 486.194 257.356 489.525 254.644C491.189 253.291 492.741 251.806 494.167 250.205C495.621 248.617 496.797 246.796 497.646 244.818C496.888 246.85 495.794 248.739 494.409 250.408C493.016 252.067 491.489 253.61 489.846 255.021C488.212 256.441 486.498 257.765 484.712 258.987C482.94 260.226 481.127 261.401 479.273 262.513C475.554 264.712 471.739 266.73 467.828 268.568C463.923 270.404 459.947 272.087 455.895 273.558Z" fill="#50661A"/>
<path d="M461.346 261.973C461.324 263.538 461.221 265.065 461.223 266.589C461.21 267.346 461.24 268.104 461.313 268.858C461.366 269.619 461.54 270.367 461.827 271.074C461.309 270.464 460.96 269.729 460.817 268.941C460.647 268.168 460.568 267.378 460.579 266.586C460.581 265.017 460.84 263.458 461.346 261.973Z" fill="#50661A"/>
<path d="M454.771 302.552C454.771 302.552 484.307 304.695 496.41 291.429C505.392 281.585 495.528 265.98 482.695 269.573C474.104 271.978 463.789 280.273 454.771 302.552Z" fill="#8B9D36"/>
<path d="M454.771 302.552C456.735 301.662 458.697 300.776 460.633 299.832C462.58 298.915 464.512 297.97 466.429 296.995C470.258 295.04 474.068 293.045 477.727 290.802C481.436 288.653 484.975 286.223 488.312 283.533C489.982 282.197 491.542 280.728 492.976 279.142C494.437 277.568 495.634 275.768 496.522 273.812C495.803 275.865 494.73 277.776 493.352 279.458C491.967 281.133 490.448 282.692 488.81 284.12C487.182 285.553 485.469 286.887 483.68 288.114C481.907 289.359 480.094 290.54 478.24 291.659C474.508 293.849 470.682 295.868 466.763 297.685C462.852 299.512 458.849 301.137 454.771 302.552Z" fill="#5E7C24"/>
<path d="M460.222 290.966C460.339 292.555 460.269 294.072 460.277 295.583C460.261 296.338 460.283 297.086 460.326 297.829C460.356 298.588 460.483 299.34 460.703 300.067C460.121 299.493 459.722 298.759 459.556 297.958C459.36 297.181 459.266 296.381 459.277 295.58C459.283 294.789 459.363 294.002 459.515 293.226C459.655 292.446 459.893 291.687 460.222 290.966V290.966Z" fill="#5E7C24"/>
<path d="M464.641 250.041C464.641 250.041 456.452 221.581 466.936 207.002C474.717 196.183 492.02 202.617 491.152 215.914C490.57 224.817 484.581 236.621 464.641 250.041Z" fill="#8B9D36"/>
<path d="M434.936 305.84V311.187C434.931 311.678 435.121 312.151 435.465 312.502C435.809 312.853 436.279 313.053 436.77 313.058H473.523C474.014 313.053 474.483 312.853 474.827 312.502C475.171 312.151 475.362 311.678 475.357 311.187V306.26C475.362 305.772 475.174 305.302 474.835 304.952C474.495 304.602 474.031 304.399 473.543 304.389L436.79 303.97C436.545 303.969 436.303 304.018 436.077 304.112C435.85 304.206 435.645 304.344 435.473 304.518C435.3 304.692 435.164 304.898 435.072 305.125C434.979 305.352 434.933 305.595 434.936 305.84V305.84Z" fill="#D6694B"/>
<path d="M436.689 313.058L437.997 340.652H471.431L473.602 313.058H436.689Z" fill="#E19974"/>
</svg>
