<svg width="90" height="90" viewBox="0 0 90 90" fill="none" xmlns="http://www.w3.org/2000/svg">
<path d="M0 45C0 20.1469 20.1469 0 45 0C69.8531 0 90 20.1469 90 45C90 69.8531 69.8531 90 45 90C20.1469 90 0 69.8531 0 45Z" fill="white"/>
<path d="M33.75 78.75C36.7337 78.75 39.5952 77.5647 41.705 75.455C43.8147 73.3452 45 70.4837 45 67.5V56.25H33.75C30.7663 56.25 27.9048 57.4353 25.795 59.545C23.6853 61.6548 22.5 64.5163 22.5 67.5C22.5 70.4837 23.6853 73.3452 25.795 75.455C27.9048 77.5647 30.7663 78.75 33.75 78.75V78.75Z" fill="#0ACF83"/>
<path d="M22.5 45C22.5 42.0163 23.6853 39.1548 25.795 37.045C27.9048 34.9353 30.7663 33.75 33.75 33.75H45V56.25H33.75C32.2726 56.25 30.8097 55.959 29.4448 55.3936C28.0799 54.8283 26.8397 53.9996 25.795 52.9549C24.7504 51.9103 23.9217 50.6701 23.3564 49.3052C22.791 47.9403 22.5 46.4774 22.5 45V45Z" fill="#A259FF"/>
<path d="M22.5 22.5C22.5 19.5163 23.6853 16.6548 25.795 14.545C27.9048 12.4353 30.7663 11.25 33.75 11.25H45V33.75H33.75C30.7663 33.75 27.9048 32.5647 25.795 30.4549C23.6853 28.3452 22.5 25.4837 22.5 22.5V22.5Z" fill="#F24E1E"/>
<path d="M45 11.25H56.25C59.2337 11.25 62.0952 12.4353 64.2049 14.545C66.3147 16.6548 67.5 19.5163 67.5 22.5C67.5 25.4837 66.3147 28.3452 64.2049 30.4549C62.0952 32.5647 59.2337 33.75 56.25 33.75H45V11.25Z" fill="#FF7262"/>
<path d="M67.5 45C67.5 47.9837 66.3147 50.8452 64.2049 52.9549C62.0952 55.0647 59.2337 56.25 56.25 56.25C53.2663 56.25 50.4048 55.0647 48.295 52.9549C46.1853 50.8452 45 47.9837 45 45C45 42.0163 46.1853 39.1548 48.295 37.045C50.4048 34.9353 53.2663 33.75 56.25 33.75C59.2337 33.75 62.0952 34.9353 64.2049 37.045C66.3147 39.1548 67.5 42.0163 67.5 45Z" fill="#1ABCFE"/>
</svg>
