<svg width="80" height="80" viewBox="0 0 80 80" fill="none" xmlns="http://www.w3.org/2000/svg">
<path d="M74.6342 20.4213C71.0573 14.1392 66.2054 9.16547 60.0775 5.49924C53.9485 1.83281 47.2574 0 39.9996 0C32.7426 0 26.0495 1.83341 19.9218 5.49924C13.7932 9.16527 8.94154 14.1392 5.36465 20.4213C1.78835 26.7035 0 33.5635 0 41.0015C0 49.9361 2.54289 57.9704 7.63007 65.1063C12.7167 72.2428 19.288 77.1809 27.343 79.9214C28.2806 80.0998 28.9749 79.9742 29.4262 79.5481C29.8775 79.1213 30.1031 78.5869 30.1031 77.947C30.1031 77.8403 30.0941 76.8796 30.0768 75.0641C30.059 73.2485 30.0506 71.6649 30.0506 70.3133L29.4861 70.0598C28.7224 70.2032 28.219 70.0825 27.0557 70.0654C25.8929 70.0488 24.6858 69.9238 23.436 69.6915C22.1858 69.4614 21.0229 68.9275 19.9464 68.091C18.8704 67.2547 18.1067 66.1597 17.6552 64.8081L17.1344 63.5797C16.7873 62.7616 16.2906 62.0036 15.5441 61.0077C14.7973 60.0107 14.0422 59.3349 13.2784 58.9791L12.9139 58.7115C12.671 58.5336 12.4454 58.3191 12.2369 58.0702C12.0285 57.8214 11.8726 57.5723 11.7684 57.3228C11.664 57.0732 11.7505 56.8684 12.0288 56.7078C12.3071 56.5471 12.8097 56.4693 13.5391 56.4693L14.5805 56.6287C15.2749 56.7714 16.1339 57.1976 17.1586 57.9099C18.1826 58.6216 18.9748 59.3963 19.6345 60.5347C20.4336 61.9944 21.3962 63.1067 22.5252 63.8721C23.6532 64.6374 24.7906 65.0195 25.9362 65.0195C27.0818 65.0195 28.1212 65.0809 28.9548 64.9038C29.7876 64.7258 29.4252 64.9552 30.1548 64.5996C30.4672 62.2137 31.318 60.3811 32.7065 59.0999C30.7275 58.8867 29.721 58.7522 28.1407 58.3253C26.5613 57.8978 24.6821 57.3904 22.9983 56.4285C21.3136 55.4679 19.3906 53.9022 18.2799 52.4792C17.1691 51.0554 16.257 49.1863 15.5458 46.8732C14.8342 44.5594 14.4785 41.8903 14.4785 38.865C14.4785 34.5577 15.8502 30.8922 18.5933 27.8665C17.3084 24.6281 17.4298 20.9978 18.9576 16.9759C19.9645 16.6552 21.4578 16.8959 23.4368 17.6965C25.4159 18.4974 26.8651 19.1835 27.7856 19.7523C28.7062 20.321 29.4436 20.8028 29.9993 21.1936C33.2291 20.2687 36.562 19.8059 39.9992 19.8059C43.4364 19.8059 46.7701 20.2687 50.0001 21.1936L51.2157 21.0434C52.5691 20.1889 54.1674 19.4056 56.0065 18.6937C57.8467 17.9822 59.5754 18.2304 60.5481 18.5511C63.9174 25.0925 61.343 27.4722 61.4057 27.8671C64.1486 30.8926 65.5209 34.5591 65.5209 38.8656C65.5209 41.8907 65.1638 44.5684 64.4532 46.9001C63.7418 49.232 62.8222 51.0993 61.6941 52.5061C60.5647 53.9124 59.1584 55.0959 57.4747 56.0563C55.7905 57.0174 54.1579 57.7112 52.5783 58.1387C50.9984 58.5662 49.2192 58.8873 47.2402 59.1009C49.0451 60.7019 49.9478 63.2291 49.9478 66.6815V77.9456C49.9478 78.5855 50.1648 79.1197 50.5993 79.5465C51.0333 79.9728 51.7186 80.0982 52.6564 79.9196C60.7126 77.1795 67.2837 72.2412 72.3701 65.1047C77.4561 57.9688 80 49.9347 80 40.9999C79.998 33.5629 78.2089 26.7035 74.6342 20.4213Z" fill="#FF3D00"/>
</svg>
