<svg width="100" height="100" viewBox="0 0 100 100" fill="none" xmlns="http://www.w3.org/2000/svg">
<circle cx="50" cy="50" r="50" fill="white"/>
<path d="M82.8125 37.8125L75 42.1094L67.1875 49.5312V75H78.125C80.7141 75 82.8125 72.9016 82.8125 70.3125V37.8125Z" fill="#4CAF50"/>
<path d="M17.1875 37.8125L22.8344 40.4844L32.8125 49.5312V75H21.875C19.2859 75 17.1875 72.9016 17.1875 70.3125V37.8125Z" fill="#1E88E5"/>
<path d="M67.1875 30L50 42.8906L32.8125 30L31.25 39.0625L32.8125 49.5313L50 62.4219L67.1875 49.5313L68.75 39.0625L67.1875 30Z" fill="#E53935"/>
<path d="M17.1875 31.7156V37.8125L32.8125 49.5313V30L27.9313 26.3422C26.7688 25.4703 25.3562 25 23.9031 25C20.1937 25 17.1875 28.0063 17.1875 31.7156Z" fill="#C62828"/>
<path d="M82.8125 31.7156V37.8125L67.1875 49.5313V30L72.0688 26.3422C73.2313 25.4703 74.6437 25 76.0969 25C79.8062 25 82.8125 28.0063 82.8125 31.7156Z" fill="#FBC02D"/>
</svg>
