<svg width="80" height="80" viewBox="0 0 80 80" fill="none" xmlns="http://www.w3.org/2000/svg">
<path d="M80 40.8991C80 38.2674 79.752 35.7673 79.3485 33.3345H40.8623V48.3555H62.8984C61.9121 53.2913 59.019 57.4552 54.7152 60.2857V70.2861H67.8747C75.5857 63.3326 80 53.0691 80 40.8991Z" fill="#4284F4"/>
<path d="M40.8623 80C51.8908 80 61.1291 76.4063 67.8747 70.3096L54.7152 60.3092C51.039 62.7011 46.3766 64.169 40.8623 64.169C30.1925 64.169 21.1814 57.1307 17.9296 47.6333H4.39355V57.9407C11.0973 70.988 24.9024 80 40.8623 80Z" fill="#33A854"/>
<path d="M17.9535 47.6334C17.1017 45.2415 16.6533 42.6741 16.6533 39.9986C16.6533 37.323 17.1226 34.7586 17.9535 32.3667V22.0593L4.39347 22.0623C1.59002 27.4572 0 33.5334 0 40.0015C0 46.4696 1.59002 52.5224 4.39347 57.9408L17.9535 47.6334Z" fill="#F9BC05"/>
<path d="M40.8623 15.8339C46.8936 15.8339 52.2734 17.8749 56.5324 21.8429L68.1885 10.439C61.15 3.97091 51.9147 0 40.8623 0C24.9024 0 11.0973 9.01495 4.39355 22.0622L17.9535 32.3696C21.1814 22.8722 30.2164 15.8339 40.8623 15.8339Z" fill="#EA4235"/>
</svg>
