<svg width="80" height="80" viewBox="0 0 80 80" fill="none" xmlns="http://www.w3.org/2000/svg">
<path d="M80 40C80 62.091 62.091 80 40 80C17.909 80 0 62.091 0 40C0 17.909 17.909 0 40 0C62.091 0 80 17.909 80 40Z" fill="#F44336"/>
<path d="M23.2249 32.5501H30.9719V57.4371H23.2249V32.5501ZM27.0999 20.1831C29.5769 20.1831 31.5849 22.1931 31.5849 24.6651C31.5849 27.1411 29.5769 29.1541 27.0999 29.1541C24.6159 29.1541 22.6089 27.1411 22.6089 24.6651C22.6089 22.1931 24.6159 20.1831 27.0999 20.1831Z" fill="white"/>
<path d="M35.8257 32.5511H43.2457V35.9551H43.3467C44.3817 33.9971 46.9047 31.9351 50.6717 31.9351C58.5037 31.9351 59.9477 37.0861 59.9477 43.7881V57.4371H52.2177V45.3381C52.2177 42.4501 52.1617 38.7381 48.1977 38.7381C44.1707 38.7381 43.5567 41.8821 43.5567 45.1271V57.4371H35.8257V32.5511Z" fill="white"/>
</svg>
