<svg width="100" height="100" viewBox="0 0 100 100" fill="none" xmlns="http://www.w3.org/2000/svg">
<circle cx="50" cy="50" r="50" fill="#FFFDFD"/>
<path fill-rule="evenodd" clip-rule="evenodd" d="M58.9713 18.3263L22.1815 20.9269C19.2162 21.1729 18.1821 23.029 18.1821 25.2541V63.8555C18.1821 65.5885 18.8273 67.0712 20.3763 69.0524L29.0246 79.8153C30.4454 81.5483 31.7358 81.9195 34.4492 81.7965L77.1717 79.3211C80.7844 79.075 81.8185 77.465 81.8185 74.7435V31.3186C81.8185 29.9101 81.2374 29.505 79.5271 28.3065C79.4298 28.2381 79.3326 28.1695 79.2355 28.1007L67.4915 20.1823C64.6521 18.2054 63.4899 17.9551 58.9713 18.3263ZM35.417 30.6059C31.928 30.8307 31.137 30.8816 29.155 29.3395L24.1171 25.5044C23.6045 25.008 23.863 24.3887 25.1512 24.2656L60.5202 21.7923C63.4877 21.5441 65.0366 22.5347 66.1989 23.4002L72.2664 27.6065C72.5249 27.7317 73.1679 28.4719 72.3946 28.4719L35.8677 30.5762L35.417 30.6059ZM31.3491 74.3723V37.5061C31.3491 35.8961 31.8639 35.1537 33.4129 35.0285L75.3621 32.6783C76.785 32.5552 77.4302 33.4207 77.4302 35.0285V71.6487C77.4302 73.2587 77.1717 74.6205 74.845 74.7435L34.7033 76.9708C32.381 77.0938 31.3491 76.3535 31.3491 74.3723ZM70.9782 39.483C71.2345 40.5967 70.9782 41.7103 69.8138 41.8376L67.8782 42.2045V69.4236C66.1989 70.289 64.6521 70.7833 63.3617 70.7833C61.2958 70.7833 60.7765 70.1639 59.2298 68.31L46.5776 49.2575V67.6906L50.5814 68.5582C50.5814 68.5582 50.5814 70.7854 47.351 70.7854L38.4463 71.2796C38.19 70.7833 38.4463 69.5487 39.3523 69.3006L41.6723 68.6833V44.3109L38.4463 44.0606C38.19 42.9469 38.833 41.3391 40.6427 41.216L50.1948 40.5967L63.3617 59.8995V42.8239L60.0032 42.4548C59.7468 41.0909 60.7765 40.1024 62.0691 39.9794L70.9782 39.483Z" fill="black"/>
</svg>
