<svg width="90" height="90" viewBox="0 0 90 90" fill="none" xmlns="http://www.w3.org/2000/svg">
<path d="M89.5542 44.9841C89.5542 69.5823 69.6065 89.5232 44.9998 89.5232C20.3932 89.5232 0.445312 69.5823 0.445312 44.9841C0.445312 20.3862 20.3932 0.445557 44.9998 0.445557C69.6065 0.445557 89.5542 20.3862 89.5542 44.9841Z" fill="url(#paint0_linear_802_73)"/>
<mask id="mask0_802_73" style="mask-type:alpha" maskUnits="userSpaceOnUse" x="0" y="0" width="90" height="90">
<path d="M90 44.9842C90 20.1403 69.8529 0 45 0C20.1471 0 0 20.1403 0 44.9842C0 67.4372 16.4556 86.0473 37.9687 89.4216C37.9687 89.4216 40.5 90 44.8714 90C49.3714 90 52.0313 89.4216 52.0313 89.4216C73.5444 86.0473 90 67.4372 90 44.9842Z" fill="url(#paint1_linear_802_73)"/>
</mask>
<g mask="url(#mask0_802_73)">
<path d="M20.9277 70.188L24.6428 56.3326C22.5396 52.5391 21.4323 48.2886 21.4323 43.974C21.4323 29.8679 32.9131 18.3911 47.0242 18.3911C61.1355 18.3911 72.616 29.8679 72.616 43.974C72.616 58.0803 61.1355 69.557 47.0242 69.557C42.7879 69.557 38.6039 68.4876 34.8593 66.4571L20.9277 70.188ZM35.552 61.2649L36.4294 61.7879C39.6503 63.7064 43.3142 64.7211 47.0242 64.7211C58.468 64.7211 67.7787 55.4143 67.7787 43.974C67.7787 32.5336 58.468 23.2268 47.0242 23.2268C35.5808 23.2268 26.2699 32.5336 26.2699 43.974C26.2699 47.7516 27.3196 51.4707 29.3052 54.7307L29.8435 55.6141L27.7698 63.3499L35.552 61.2649Z" fill="white"/>
<path d="M56.5444 47.5318C55.4909 46.9019 54.1207 46.1989 52.8795 46.7064C51.9276 47.0958 51.3196 48.5854 50.703 49.3461C50.3862 49.7366 50.0084 49.7974 49.5224 49.6019C45.9486 48.179 43.2102 45.794 41.2383 42.508C40.9043 41.9972 40.9639 41.5949 41.3664 41.1212C41.9624 40.4203 42.7104 39.624 42.8716 38.6787C43.0327 37.734 42.5892 36.6294 42.1987 35.788C41.6991 34.7127 41.1411 33.1796 40.0639 32.5713C39.073 32.0122 37.7687 32.3252 36.8865 33.0434C35.3635 34.2831 34.6287 36.2258 34.6509 38.1511C34.657 38.6983 34.7242 39.2442 34.8518 39.7721C35.1593 41.0423 35.7464 42.2278 36.4073 43.3555C36.9056 44.2056 37.4474 45.0305 38.0314 45.824C39.9429 48.4197 42.3209 50.6754 45.0743 52.3616C46.4502 53.2037 47.9322 53.9423 49.4666 54.4493C51.1875 55.0176 52.7206 55.6093 54.5792 55.2566C56.5248 54.8873 58.443 53.6835 59.2154 51.8093C59.444 51.2542 59.5583 50.6362 59.4303 50.0501C59.1658 48.8384 57.5251 48.1179 56.5444 47.5318Z" fill="white"/>
</g>
<defs>
<linearGradient id="paint0_linear_802_73" x1="76.3152" y1="13.4254" x2="13.3279" y2="76.4348" gradientUnits="userSpaceOnUse">
<stop stop-color="#00FB73"/>
<stop offset="0.5" stop-color="#00D667"/>
<stop offset="1" stop-color="#00B25B"/>
</linearGradient>
<linearGradient id="paint1_linear_802_73" x1="13.1143" y1="13.1097" x2="76.7312" y2="76.7489" gradientUnits="userSpaceOnUse">
<stop stop-color="#1677F1"/>
<stop offset="0.6" stop-color="#2047C6"/>
<stop offset="1" stop-color="#2B189C"/>
</linearGradient>
</defs>
</svg>
