<svg width="354" height="354" viewBox="0 0 354 354" fill="none" xmlns="http://www.w3.org/2000/svg">
<path d="M261.087 84.476C248.987 73.3825 234.821 64.7807 219.398 59.1618C203.974 53.5429 187.595 51.0169 171.195 51.7281C154.795 52.4393 138.696 56.3737 123.817 63.3067C108.938 70.2397 95.5695 80.0355 84.476 92.1348L121.33 125.925C127.986 118.666 136.007 112.788 144.934 108.628C153.862 104.469 163.521 102.108 173.361 101.681C183.201 101.254 193.029 102.77 202.283 106.141C211.537 109.513 220.037 114.674 227.296 121.33L261.087 84.476Z" fill="#FAB908"/>
<path d="M84.4765 92.1348C73.383 104.234 64.7812 118.4 59.1623 133.824C53.5434 149.247 51.0174 165.626 51.7286 182.026C52.4398 198.426 56.3742 214.525 63.3072 229.405C70.2402 244.284 80.036 257.652 92.1353 268.745L125.926 231.892C118.666 225.235 112.789 217.215 108.629 208.287C104.469 199.359 102.108 189.7 101.682 179.86C101.255 170.02 102.771 160.193 106.142 150.938C109.513 141.684 114.674 133.185 121.33 125.925L84.4765 92.1348Z" fill="#FF3D00"/>
<path d="M92.135 268.745C104.234 279.839 118.4 288.441 133.824 294.06C149.247 299.679 165.627 302.204 182.027 301.493C198.426 300.782 214.526 296.848 229.405 289.915C244.284 282.982 257.652 273.186 268.746 261.087L231.892 227.296C225.236 234.556 217.215 240.433 208.287 244.593C199.36 248.753 189.7 251.114 179.86 251.54C170.02 251.967 160.193 250.451 150.939 247.08C141.684 243.709 133.185 238.548 125.925 231.892L92.135 268.745Z" fill="#0D9214"/>
<path d="M220.063 168.99C220.528 193.286 201.209 213.359 176.913 213.824V213.824L175.842 157.834C175.377 133.538 194.696 113.465 218.992 113V113L220.063 168.99Z" fill="#090E96"/>
<path d="M170.009 187.991C170.469 212.839 150.698 233.355 125.849 233.815V233.815L124.832 178.824C124.373 153.976 144.144 133.459 168.992 133V133L170.009 187.991Z" fill="#090E96"/>
</svg>
